<mxfile host="app.diagrams.net" modified="2022-07-07T08:03:10.509Z" agent="5.0 (Windows NT 10.0; Win64; x64) AppleWebKit/537.36 (KHTML, like Gecko) Chrome/103.0.0.0 Safari/537.36" etag="vk3RTt_oV91YC68b-E4m" version="20.0.4" type="github">
  <diagram id="THdtS_5FM2x-v2m7B9kB" name="第 1 页">
    <mxGraphModel dx="1038" dy="547" grid="1" gridSize="10" guides="1" tooltips="1" connect="1" arrows="1" fold="1" page="1" pageScale="1" pageWidth="1169" pageHeight="827" math="0" shadow="0">
      <root>
        <mxCell id="0" />
        <mxCell id="1" parent="0" />
        <mxCell id="mwEEM-B4zFg262mdicpK-1" value="&lt;font style=&quot;font-size: 13px;&quot;&gt;loadBeanDefinitions&lt;/font&gt;" style="rounded=1;whiteSpace=wrap;html=1;strokeWidth=2;fillWeight=4;hachureGap=8;hachureAngle=45;fillColor=#d5e8d4;sketch=1;strokeColor=#82b366;" vertex="1" parent="1">
          <mxGeometry x="400" y="120" width="120" height="60" as="geometry" />
        </mxCell>
        <mxCell id="mwEEM-B4zFg262mdicpK-2" value="同名方法多" style="ellipse;whiteSpace=wrap;html=1;strokeWidth=2;fillWeight=2;hachureGap=8;fillColor=#ffe6cc;fillStyle=dots;sketch=1;fontSize=13;strokeColor=#d79b00;" vertex="1" parent="1">
          <mxGeometry x="450" y="70" width="120" height="60" as="geometry" />
        </mxCell>
        <mxCell id="mwEEM-B4zFg262mdicpK-15" style="edgeStyle=orthogonalEdgeStyle;rounded=0;orthogonalLoop=1;jettySize=auto;html=1;exitX=1;exitY=0.5;exitDx=0;exitDy=0;entryX=0;entryY=0.5;entryDx=0;entryDy=0;fontSize=13;" edge="1" parent="1" source="mwEEM-B4zFg262mdicpK-5" target="mwEEM-B4zFg262mdicpK-6">
          <mxGeometry relative="1" as="geometry" />
        </mxCell>
        <mxCell id="mwEEM-B4zFg262mdicpK-5" value="&lt;font style=&quot;font-size: 13px;&quot;&gt;XML&lt;/font&gt;" style="rounded=1;whiteSpace=wrap;html=1;strokeWidth=2;fillWeight=4;hachureGap=8;hachureAngle=45;fillColor=#f8cecc;sketch=1;strokeColor=#b85450;" vertex="1" parent="1">
          <mxGeometry x="210" y="220" width="120" height="60" as="geometry" />
        </mxCell>
        <mxCell id="mwEEM-B4zFg262mdicpK-16" style="edgeStyle=orthogonalEdgeStyle;rounded=0;orthogonalLoop=1;jettySize=auto;html=1;exitX=1;exitY=0.5;exitDx=0;exitDy=0;entryX=0;entryY=0.5;entryDx=0;entryDy=0;fontSize=13;" edge="1" parent="1" source="mwEEM-B4zFg262mdicpK-6" target="mwEEM-B4zFg262mdicpK-7">
          <mxGeometry relative="1" as="geometry" />
        </mxCell>
        <mxCell id="mwEEM-B4zFg262mdicpK-6" value="&lt;span style=&quot;font-size: 13px;&quot;&gt;读取&lt;/span&gt;" style="rounded=1;whiteSpace=wrap;html=1;strokeWidth=2;fillWeight=4;hachureGap=8;hachureAngle=45;fillColor=#f8cecc;sketch=1;strokeColor=#b85450;" vertex="1" parent="1">
          <mxGeometry x="380" y="220" width="120" height="60" as="geometry" />
        </mxCell>
        <mxCell id="mwEEM-B4zFg262mdicpK-17" style="edgeStyle=orthogonalEdgeStyle;rounded=0;orthogonalLoop=1;jettySize=auto;html=1;exitX=1;exitY=0.5;exitDx=0;exitDy=0;entryX=0;entryY=0.5;entryDx=0;entryDy=0;fontSize=13;" edge="1" parent="1" source="mwEEM-B4zFg262mdicpK-7" target="mwEEM-B4zFg262mdicpK-8">
          <mxGeometry relative="1" as="geometry" />
        </mxCell>
        <mxCell id="mwEEM-B4zFg262mdicpK-7" value="&lt;span style=&quot;font-size: 13px;&quot;&gt;装换成document&lt;/span&gt;" style="rounded=1;whiteSpace=wrap;html=1;strokeWidth=2;fillWeight=4;hachureGap=8;hachureAngle=45;fillColor=#f8cecc;sketch=1;strokeColor=#b85450;" vertex="1" parent="1">
          <mxGeometry x="540" y="220" width="120" height="60" as="geometry" />
        </mxCell>
        <mxCell id="mwEEM-B4zFg262mdicpK-18" style="edgeStyle=orthogonalEdgeStyle;rounded=0;orthogonalLoop=1;jettySize=auto;html=1;exitX=0.5;exitY=1;exitDx=0;exitDy=0;entryX=0.5;entryY=0;entryDx=0;entryDy=0;fontSize=13;" edge="1" parent="1" source="mwEEM-B4zFg262mdicpK-8" target="mwEEM-B4zFg262mdicpK-9">
          <mxGeometry relative="1" as="geometry" />
        </mxCell>
        <mxCell id="mwEEM-B4zFg262mdicpK-8" value="&lt;span style=&quot;font-size: 13px;&quot;&gt;遍历每一个子元素&lt;br&gt;进行解析操作&lt;br&gt;&lt;/span&gt;" style="rounded=1;whiteSpace=wrap;html=1;strokeWidth=2;fillWeight=4;hachureGap=8;hachureAngle=45;fillColor=#f8cecc;sketch=1;strokeColor=#b85450;" vertex="1" parent="1">
          <mxGeometry x="690" y="220" width="120" height="60" as="geometry" />
        </mxCell>
        <mxCell id="mwEEM-B4zFg262mdicpK-19" style="edgeStyle=orthogonalEdgeStyle;rounded=0;orthogonalLoop=1;jettySize=auto;html=1;exitX=0;exitY=0.5;exitDx=0;exitDy=0;fontSize=13;" edge="1" parent="1" source="mwEEM-B4zFg262mdicpK-9" target="mwEEM-B4zFg262mdicpK-10">
          <mxGeometry relative="1" as="geometry" />
        </mxCell>
        <mxCell id="mwEEM-B4zFg262mdicpK-9" value="&lt;span style=&quot;font-size: 13px;&quot;&gt;找到对应的处理器&lt;br&gt;handler&lt;br&gt;&lt;/span&gt;" style="rounded=1;whiteSpace=wrap;html=1;strokeWidth=2;fillWeight=4;hachureGap=8;hachureAngle=45;fillColor=#f8cecc;sketch=1;strokeColor=#b85450;" vertex="1" parent="1">
          <mxGeometry x="690" y="360" width="120" height="60" as="geometry" />
        </mxCell>
        <mxCell id="mwEEM-B4zFg262mdicpK-23" style="edgeStyle=orthogonalEdgeStyle;rounded=0;orthogonalLoop=1;jettySize=auto;html=1;exitX=0;exitY=0.5;exitDx=0;exitDy=0;fontSize=13;" edge="1" parent="1" source="mwEEM-B4zFg262mdicpK-10" target="mwEEM-B4zFg262mdicpK-22">
          <mxGeometry relative="1" as="geometry" />
        </mxCell>
        <mxCell id="mwEEM-B4zFg262mdicpK-10" value="&lt;span style=&quot;font-size: 13px;&quot;&gt;不同元素解析&lt;/span&gt;" style="rounded=1;whiteSpace=wrap;html=1;strokeWidth=2;fillWeight=4;hachureGap=8;hachureAngle=45;fillColor=#f8cecc;sketch=1;strokeColor=#b85450;" vertex="1" parent="1">
          <mxGeometry x="530" y="360" width="120" height="60" as="geometry" />
        </mxCell>
        <mxCell id="mwEEM-B4zFg262mdicpK-11" value="IO流" style="ellipse;whiteSpace=wrap;html=1;strokeWidth=2;fillWeight=2;hachureGap=8;fillColor=#e1d5e7;fillStyle=dots;sketch=1;fontSize=13;strokeColor=#9673a6;" vertex="1" parent="1">
          <mxGeometry x="290" y="270" width="120" height="60" as="geometry" />
        </mxCell>
        <mxCell id="mwEEM-B4zFg262mdicpK-12" value="dom4J&lt;br&gt;sax" style="ellipse;whiteSpace=wrap;html=1;strokeWidth=2;fillWeight=2;hachureGap=8;fillColor=#e1d5e7;fillStyle=dots;sketch=1;fontSize=13;strokeColor=#9673a6;" vertex="1" parent="1">
          <mxGeometry x="460" y="270" width="120" height="60" as="geometry" />
        </mxCell>
        <mxCell id="mwEEM-B4zFg262mdicpK-13" value="遍历" style="ellipse;whiteSpace=wrap;html=1;strokeWidth=2;fillWeight=2;hachureGap=8;fillColor=#e1d5e7;fillStyle=dots;sketch=1;fontSize=13;strokeColor=#9673a6;" vertex="1" parent="1">
          <mxGeometry x="620" y="270" width="120" height="60" as="geometry" />
        </mxCell>
        <mxCell id="mwEEM-B4zFg262mdicpK-21" style="edgeStyle=orthogonalEdgeStyle;rounded=0;orthogonalLoop=1;jettySize=auto;html=1;exitX=0.5;exitY=0;exitDx=0;exitDy=0;fontSize=13;" edge="1" parent="1" source="mwEEM-B4zFg262mdicpK-20" target="mwEEM-B4zFg262mdicpK-5">
          <mxGeometry relative="1" as="geometry" />
        </mxCell>
        <mxCell id="mwEEM-B4zFg262mdicpK-20" value="&amp;lt;bean&amp;gt;&lt;br&gt;&amp;lt;context&amp;gt;&lt;br&gt;&amp;lt;aop&amp;gt;&lt;br&gt;&amp;lt;tx&amp;gt;" style="rhombus;whiteSpace=wrap;html=1;strokeWidth=2;fillWeight=-1;hachureGap=8;fillStyle=cross-hatch;fillColor=#dae8fc;sketch=1;fontSize=13;strokeColor=#6c8ebf;" vertex="1" parent="1">
          <mxGeometry x="210" y="330" width="120" height="90" as="geometry" />
        </mxCell>
        <mxCell id="mwEEM-B4zFg262mdicpK-22" value="&lt;span style=&quot;font-size: 13px;&quot;&gt;放到BeanDefinition&lt;/span&gt;" style="rounded=1;whiteSpace=wrap;html=1;strokeWidth=2;fillWeight=4;hachureGap=8;hachureAngle=45;fillColor=#f8cecc;sketch=1;strokeColor=#b85450;" vertex="1" parent="1">
          <mxGeometry x="380" y="360" width="120" height="60" as="geometry" />
        </mxCell>
      </root>
    </mxGraphModel>
  </diagram>
</mxfile>
